# AST/ASF file generated using VICON BodyLanguage
# -----------------------------------------------
:version 1.10
:name VICON
:units
  mass 1.0
  length 0.45
  angle deg
:documentation
   .ast/.asf automatically generated from VICON data using
   VICON BodyBuilder and BodyLanguage model FoxedUp or BRILLIANT.MOD
:root
   order TX TY TZ RX RY RZ
   axis XYZ
   position 0 0 0  
   orientation 0 -0 0 
:bonedata
  begin
     id 1 
     name lhipjoint
     direction 0.432694 -0.693742 0.575759 
     length 2.19277 
     axis 0 -0 0  XYZ
  end
  begin
     id 2 
     name lfemur
     direction 0.34202 -0.939693 0  
     length 6.69022  
     axis 0 -0 20  XYZ
    dof rx ry rz
    limits (-160.0 20.0)
           (-70.0 70.0)
           (-60.0 70.0)
  end
  begin
     id 3 
     name ltibia
     direction 0.34202 -0.939693 0   
     length 6.50337   
     axis 0 -0 20   XYZ
    dof rx
    limits (-10.0 170.0)
  end
  begin
     id 4 
     name lfoot
     direction 0.158999 -0.435969 0.885805   
     length 2.70564   
     axis -90 -1.13533e-015 20   XYZ
    dof rx rz
    limits (-45.0 90.0)
           (-70.0 20.0)
  end
  begin
     id 5 
     name ltoes
     direction -0.00592919 0.00964381 0.999936   
     length 1.29929   
     axis -90 -1.13533e-015 20   XYZ
    dof rx
    limits (-90.0 20.0)
  end
  begin
     id 6 
     name rhipjoint
     direction -0.414359 -0.700339 0.581234   
     length 2.17212  
     axis 0 -0 0  XYZ 
  end
  begin
     id 7 
     name rfemur
     direction -0.34202 -0.939693 0   
     length 7.17659   
     axis 0 -0 -20   XYZ
    dof rx ry rz
    limits (-160.0 20.0)
           (-70.0 70.0)
           (-70.0 60.0)
  end
  begin
     id 8 
     name rtibia
     direction -0.34202 -0.939693 0   
     length 6.36669   
     axis 0 -0 -20   XYZ
    dof rx
    limits (-10.0 170.0)
 end
 begin
     id 9 
     name rfoot
     direction -0.137064 -0.37658 0.916188   
     length 2.22351  
     axis -90 1.13533e-015 -20   XYZ
    dof rx rz
    limits (-45.0 90.0)
           (-20.0 70.0)
  end
  begin
     id 10 
     name rtoes
     direction -0.000784077 -0.00289101 0.999996   
     length 1.09522   
     axis -90 1.13533e-015 -20   XYZ
    dof rx
    limits (-90.0 20.0)
  end
  begin
     id 11 
     name lowerback
     direction -0.0176242 0.984912 -0.172157   
     length 1.65301   
     axis 0 -0 0   XYZ
    dof rx ry rz
    limits (-20.0 45.0)
           (-30.0 30.0)
           (-30.0 30.0)
  end
  begin
     id 12 
     name upperback
     direction -0.00218128 0.998776 -0.0494072   
     length 1.67776   
     axis 0 -0 0   XYZ
    dof rx ry rz
    limits (-20.0 45.0)
           (-30.0 30.0)
           (-30.0 30.0)
  end
  begin
     id 13 
     name thorax
     direction 0.00544186 0.999658 0.0255711   
     length 1.72293   
     axis 0 -0 0   XYZ
    dof rx ry rz
    limits (-20.0 45.0)
           (-30.0 30.0)
           (-30.0 30.0)
  end
  begin
     id 14 
     name lowerneck
     direction -0.105325 0.983841 0.144785   
     length 2.14226   
     axis 0 -0 0   XYZ
    dof rx ry rz
    limits (-20.0 45.0)
           (-30.0 30.0)
           (-30.0 30.0)
  end
  begin
     id 15 
     name upperneck
     direction 0.0547957 0.988053 -0.144041   
     length 2.17508   
     axis 0 -0 0   XYZ
    dof rx ry rz
    limits (-20.0 45.0)
           (-30.0 30.0)
           (-30.0 30.0)
  end
  begin
     id 16
     name head
     direction 0.0247488 0.997534 -0.0656813  
     length 2.20048  
     axis 0 -0 0   XYZ
    dof rx ry rz
    limits (-20.0 45.0)
           (-30.0 30.0)
           (-30.0 30.0)
  end
  begin
     id 17 
     name lclavicle
     direction 0.820559 0.567247 -0.0701026  
     length 4.09615  
     axis 0 -0 0   XYZ
    dof ry rz
    limits (-20.0 10.0)
           (0.0 20.0)
  end
  begin
     id 18 
     name lhumerus
     direction 0.999977 -0.0067566 -9.96392e-005   
     length 4.59333   
     axis -180 -30 -90   XYZ
    dof rx ry rz
    limits (-60.0 90.0)
           (-90.0 90.0)
           (-90.0 90.0)
  end
  begin
     id 19
     name lradius
     direction 1 -4.48982e-011 -2.53425e-027   
     length 2.81151   
     axis -180 -30 -90   XYZ
    dof rx
    limits (-10.0 170.0)
  end
  begin
     id 20
     name lwrist
     direction 1 -4.48939e-011 -7.39254e-028   
     length 1.40576   
     axis 2.56395e-016 90 90   XYZ
    dof ry
    limits (-180.0 0.0)
 end
  begin
     id 21 
     name lhand
     direction 1 -4.48939e-011 -1.47851e-027   
     length 0.895651   
     axis 9.43423e-016 90 90   XYZ
    dof rx rz
    limits (-90.0 90.0)
           (-45.0 45.0)
  end
  begin
     id 22 
     name lfingers
     direction 1 -4.48978e-011 -2.95702e-027   
     length 0.722097   
     axis 1.88685e-015 90 90   XYZ
    dof rx
    limits (0.0 90.0)
  end
  begin
     id 23
     name lthumb
     direction 0.707107 -6.34931e-011 0.707107   
     length 1.03679   
     axis -90 45 -9.86935e-015   XYZ
    dof rx rz
    limits (-45.0 45.0)
           (-45.0 45.0)
  end
  begin
     id 24 
     name rclavicle
     direction -0.831414 0.553102 -0.0531864   
     length 4.24872  
     axis 0 -0 0   XYZ 
    dof ry rz
    limits (-10.0 20.0)
           (-20.0 0.0)
  end
  begin
     id 25 
     name rhumerus
     direction -0.999916 -0.000939607 0.0129331  
     length 4.74834   
     axis -180 30 90   XYZ
    dof rx ry rz
    limits (-90.0 60.0)
           (-90.0 90.0)
           (-90.0 90.0)
  end
  begin
     id 26 
     name rradius
     direction -1 -4.48956e-011 -1.31752e-027   
     length 2.79907   
     axis -180 30 90   XYZ
    dof rx
    limits (-10.0 170.0)
  end
  begin
     id 27 
     name rwrist
     direction -1 -4.4897e-011 -7.39254e-028   
     length 1.39954   
     axis 2.56395e-016 -90 -90   XYZ
    dof ry
    limits (-180.0 0.0)
  end
  begin
     id 28
     name rhand
     direction -0.999997 -0.00250697 0.000800838   
     length 0.953304   
     axis 9.43423e-016 -90 -90   XYZ
    dof rx rz
    limits (-90.0 90.0)
           (-45.0 45.0)
  end
  begin
     id 29
     name rfingers
     direction -1 -4.48954e-011 -2.95702e-027   
     length 0.763342   
     axis 1.88685e-015 -90 -90   XYZ
    dof rx
    limits (0.0 90.0)
  end
  begin
     id 30
     name rthumb
     direction -0.709701 -0.00217037 0.7045   
     length 1.10115   
     axis -90 -45 9.86935e-015   XYZ
    dof rx rz
    limits (-45.0 45.0)
           (-45.0 45.0)
  end
:hierarchy
  begin
    root lhipjoint rhipjoint lowerback
    lhipjoint lfemur
    lfemur ltibia
    ltibia lfoot
    lfoot ltoes
    rhipjoint rfemur
    rfemur rtibia
    rtibia rfoot
    rfoot rtoes
    lowerback upperback
    upperback thorax
    thorax lowerneck lclavicle rclavicle
    lowerneck upperneck
    upperneck head
    lclavicle lhumerus
    lhumerus lradius
    lradius lwrist
    lwrist lhand lthumb
    lhand lfingers
    rclavicle rhumerus
    rhumerus rradius
    rradius rwrist
    rwrist rhand rthumb
    rhand rfingers
  end

#!OML:ASF G:\ViconDB\ViconDB\414\test\team2\shane.ASF
:FULLY-SPECIFIED
:DEGREES
99
root 8.04454 16.2287 -8.45402 16.2055 -24.8999 -3.40873
lowerback 32.3023 -5.48334 -23.4464
upperback 13.1425 -14.0783 13.8229
thorax 7.50365 -11.7618 34.5922
lowerneck -52.0173 20.3567 -14.1238
upperneck 15.518 36.7017 -3.49071
head 10.4861 14.7476 6.92192
rclavicle 1.19271e-013 2.46493e-014
rhumerus 37.5384 80.2941 -23.0351
rradius 68.0482
rwrist 16.1795
rhand -27.937 -9.43602
rfingers 7.12502
rthumb -1.32507 -39.4117
lclavicle 1.19271e-013 2.46493e-014
lhumerus -22.2041 -26.1918 65.9059
lradius 89.6848
lwrist 44.38
lhand -37.7021 13.0794
lfingers 7.12502
lthumb -10.752 42.7842
rfemur -23.184 -16.1184 7.23661
rtibia 53.1204
rfoot -12.6089 -4.84111
rtoes -17.1042
lfemur -37.4536 20.984 -10.3855
ltibia 76.1579
lfoot -13.0365 -8.68681
ltoes -5.61198
100
root 7.99895 16.3463 -8.23725 15.2355 -24.7646 -3.42775
lowerback 31.4309 -5.57963 -23.2734
upperback 13.1072 -14.0214 13.7508
thorax 7.73717 -11.7128 34.1912
lowerneck -52.0491 20.3783 -14.0156
upperneck 15.9713 36.8431 -3.71336
head 10.7351 14.6735 6.93168
rclavicle -1.35174e-014 -1.23246e-013
rhumerus 35.3163 81.2213 -23.5298
rradius 68.6459
rwrist 15.7759
rhand -28.3084 -9.95503
rfingers 7.12502
rthumb -1.68373 -39.9281
lclavicle -1.35174e-014 -1.23246e-013
lhumerus -23.7979 -27.2779 67.2423
lradius 91.1094
lwrist 43.2816
lhand -37.2661 12.2389
lfingers 7.12502
lthumb -10.3314 41.9651
rfemur -20.0555 -15.0487 6.78493
rtibia 50.3403
rfoot -10.7133 -5.24571
rtoes -17.0596
lfemur -36.1554 20.851 -10.1319
ltibia 75.4117
lfoot -13.5011 -9.55707
ltoes -4.27923
101
root 7.96346 16.4664 -8.01508 14.2511 -24.3001 -3.53027
lowerback 30.8194 -5.78379 -22.8404
upperback 13.0048 -14.0781 13.8009
thorax 7.81597 -11.6878 33.876
lowerneck -51.7991 20.4786 -13.92
upperneck 16.1596 37.0913 -4.21202
head 10.9111 14.6464 6.84527
rclavicle 1.03368e-014 -2.54444e-014
rhumerus 35.6314 82.2 -21.5937
rradius 69.0689
rwrist 15.1831
rhand -29.0504 -10.5462
rfingers 7.12502
rthumb -2.40035 -40.5124
lclavicle 1.03368e-014 -2.54444e-014
lhumerus -25.4931 -28.0024 68.7205
lradius 92.2285
lwrist 42.1724
lhand -37.0163 11.1668
lfingers 7.12502
lthumb -10.0903 40.9049
rfemur -16.73 -14.6726 6.50822
rtibia 47.4535
rfoot -8.79987 -5.45536
rtoes -17.1784
lfemur -34.994 20.5268 -9.82269
ltibia 74.289
lfoot -14.5174 -10.2104
ltoes -4.69814
102
root 7.92608 16.5719 -7.79779 13.5866 -24.1896 -3.79644
lowerback 21.2959 -0.288368 0.693259
upperback 9.39499 -0.320409 2.80939
thorax -1.67654 -0.283244 2.67537
lowerneck -25.7705 7.33179 -2.05854
upperneck 8.74943 10.7472 -1.7876
head 6.72663 4.92619 1.09336
rclavicle -1.65985e-014 2.27608e-014
rhumerus -38.1158 28.6208 -100.606
rradius 66.1979
rwrist 24.9124
rhand -30.8823 -10.3736
rfingers 7.12502
rthumb -4.16949 -40.3126
lclavicle -1.65985e-014 2.27608e-014
lhumerus -33.3682 -47.7873 115.225
lradius 50.599
lwrist -3.48942
lhand -37.8405 2.50354
lfingers 7.12502
lthumb -10.8854 32.2014
rfemur -13.9035 -13.8774 6.47244
rtibia 44.6339
rfoot -6.73696 -5.88289
rtoes -17.4109
lfemur -34.1177 20.6643 -9.6574
ltibia 72.7837
lfoot -15.5131 -10.0271
ltoes -5.42745
103
root 7.89025 16.6748 -7.58841 12.9819 -23.6327 -3.82485
lowerback 20.6216 -0.261386 0.73564
upperback 9.06937 -0.268675 2.81785
thorax -1.69301 -0.247778 2.64061
lowerneck -25.732 7.40027 -1.87769
upperneck 9.34752 10.8017 -1.76868
head 6.92806 4.94102 1.09619
rclavicle 1.20265e-014 -1.31198e-014
rhumerus -40.0571 29.1801 -101.516
rradius 66.5624
rwrist 24.2837
rhand -31.6405 -10.8168
rfingers 7.12502
rthumb -4.90158 -40.7401
lclavicle 1.20265e-014 -1.31198e-014
lhumerus -35.6479 -47.2075 115.932
lradius 51.649
lwrist -4.0951
lhand -37.3459 1.4083
lfingers 7.12502
lthumb -10.4083 31.1307
rfemur -11.1228 -13.2859 6.39946
rtibia 41.8001
rfoot -4.70587 -6.69613
rtoes -16.9601
lfemur -33.6324 20.4826 -9.88596
ltibia 70.9403
lfoot -16.6462 -9.37666
ltoes -6.49844
104
root 7.86291 16.776 -7.36107 12.2771 -23.4358 -3.82066
lowerback 20.0109 -0.166353 0.774246
upperback 8.80579 -0.136817 2.77379
thorax -1.67476 -0.174159 2.53655
lowerneck -25.6936 7.4873 -1.79122
upperneck 9.79408 10.9143 -1.80316
head 7.07781 4.97981 1.0988
rclavicle -1.48095e-014 3.75703e-014
rhumerus -41.7734 29.6145 -102.226
rradius 67.186
rwrist 22.989
rhand -31.7513 -10.7939
rfingers 7.12502
rthumb -5.00856 -40.7147
lclavicle -1.48095e-014 3.75703e-014
lhumerus -37.2789 -46.062 116.202
lradius 52.4325
lwrist -5.15214
lhand -36.9618 1.29531
lfingers 7.12502
lthumb -10.0378 31.0359
rfemur -8.35587 -12.7189 6.10079
rtibia 39.0186
rfoot -2.77648 -7.14895
rtoes -16.3553
lfemur -32.9536 20.5912 -10.2942
ltibia 68.7568
lfoot -17.9322 -8.65911
ltoes -6.85951
105
root 7.83888 16.8722 -7.13862 11.7508 -23.0077 -3.71554
lowerback 19.2857 -0.0919606 0.688403
upperback 8.52987 -0.0498835 2.83597
thorax -1.60568 -0.127332 2.62617
lowerneck -25.811 7.41405 -1.98057
upperneck 10.281 10.8986 -1.76861
head 7.24731 4.94918 1.15444
rclavicle -1.15295e-014 1.09332e-014
rhumerus -43.256 29.9432 -102.494
rradius 67.5468
rwrist 23.4961
rhand -32.2485 -11.1496
rfingers 7.12502
rthumb -5.48864 -41.0585
lclavicle -1.15295e-014 1.09332e-014
lhumerus -38.5099 -44.9859 116.213
lradius 53.2467
lwrist -5.59793
lhand -37.2396 0.813658
lfingers 7.12502
lthumb -10.3058 30.5412
rfemur -5.82894 -12.1052 5.91169
rtibia 36.2617
rfoot -0.615052 -8.07383
rtoes -15.6608
lfemur -32.6197 20.5339 -10.9665
ltibia 66.2858
lfoot -19.0769 -7.95736
ltoes -8.01548
